# Blender v2.79 (sub 0) OBJ File: 'LevelArchitectureR.blend'
# www.blender.org
mtllib LevelArchitectureR.mtl
o LevelArchitecture_LevelArchitecture_Mesh
v 2.352149 -0.923537 2.352149
v 2.352149 -0.923537 1.871162
v 2.352149 -0.923537 0.756709
v 2.352149 -0.923537 -2.352149
v 2.352149 0.923537 -2.352149
v 2.352149 0.923537 0.756709
v 2.352149 0.923537 1.871162
v 2.352149 0.923537 2.352149
v 6.888433 -0.923537 1.871162
v 6.911409 -8.443283 20.034645
v 6.911409 -8.443260 -18.272026
v 6.888433 -0.923537 0.756709
v 6.911408 14.203481 -18.272018
v 6.888433 0.923537 0.756709
v 6.911408 14.203458 20.034653
v 6.888433 0.923537 1.871162
v 32.834545 -4.625721 20.125593
v 48.696621 -4.625721 20.125593
v 48.696621 -4.625698 -18.362972
v 32.834545 -4.625698 -18.362972
v 48.696621 -8.443260 -18.272026
v 48.696621 14.203481 -18.272018
v 48.696621 14.203458 20.034653
v 48.696621 -8.443283 20.034645
v 48.696621 -1.595806 1.817518
v 48.696621 -4.517414 1.817516
v 48.696621 -1.595805 -0.054893
v 48.696621 -4.517411 -0.054895
v 6.911409 -8.859169 -18.362976
v 6.911409 -8.859192 20.125591
v 32.834545 -8.495792 20.125591
v 32.834545 -8.495770 -18.362974
v -2.352149 -0.923537 2.352149
v -2.352149 0.923537 2.352149
v -2.352149 0.923537 -2.352149
v -2.352149 -0.923537 -2.352149
v 58.922142 -1.595806 1.817519
v 58.922142 -4.517416 1.817515
v 58.922142 -1.595802 -0.054892
v 58.922142 -4.517409 -0.054896
v 58.922142 4.746082 14.709045
v 58.922142 -10.859328 14.709002
v 58.922142 4.746110 -12.946372
v 58.922142 -10.859287 -12.946423
v 90.816521 4.746083 14.709045
v 90.816521 -10.859328 14.709002
v 90.816521 4.746110 -12.946372
v 90.816521 -10.859287 -12.946423
vt 0.740667 0.736054
vt 0.508179 0.639748
vt 0.998538 0.639847
vt 0.754934 0.736057
vt 0.998479 0.929746
vt 0.754929 0.759702
vt 0.508119 0.929647
vt 0.740663 0.759699
vt 0.323118 0.063282
vt 0.489593 0.063282
vt 0.489593 0.467225
vt 0.323118 0.467226
vt 0.504353 0.654517
vt 0.998987 0.654775
vt 0.998847 0.922857
vt 0.504213 0.922598
vt 0.531199 0.490318
vt 0.531258 0.004520
vt 0.976614 0.004575
vt 0.976554 0.490372
vt 0.994920 0.905914
vt 0.499530 0.905413
vt 0.499802 0.636922
vt 0.995191 0.637423
vt 0.484904 0.692354
vt 0.484904 0.977030
vt 0.255909 0.778429
vt 0.255909 0.741703
vt 0.003378 0.977030
vt 0.232373 0.778429
vt 0.003378 0.692354
vt 0.232373 0.741703
vt 0.010407 0.467225
vt 0.010407 0.063282
vt 0.282501 0.063282
vt 0.282501 0.467226
vt 0.506280 0.631156
vt 1.000380 0.631257
vt 0.811548 0.610368
vt 0.504319 0.649318
vt 0.505238 0.603587
vt 0.811647 0.605022
vt 0.807636 0.653748
vt 0.498421 0.653069
vt 0.497663 0.647784
vt 0.801082 0.608550
vt 0.609772 0.525393
vt 0.675957 0.548012
vt 0.799758 0.587618
vt 0.759502 0.528832
vt 0.708801 0.553781
vt 0.749922 0.542622
vt 0.693099 0.535473
vt 0.585374 0.532989
vt 0.802128 0.523215
vt 0.804003 0.587593
vt 0.823353 0.578205
vt 0.822911 0.532989
vt 0.869124 0.593161
vt 0.916890 0.585073
vt 0.849897 0.537678
vt 0.824964 0.559412
vt 0.097606 0.559198
vt 0.182936 0.523928
vt 0.679546 0.557817
vt 0.665985 0.571830
vt 0.209205 0.559198
vt 0.668039 0.568909
vt 0.180326 0.548591
vt 0.676876 0.556341
vt 0.735865 0.553243
vt 0.744984 0.562055
vt 0.726174 0.564673
vt 0.726346 0.553314
vt 0.818645 0.560707
vt 0.867943 0.559366
vt 0.787821 0.559325
vt 0.796562 0.561930
vt 0.625000 0.000000
vt 0.625000 0.000000
vt 0.875000 0.000000
vt 0.875000 0.000000
vt 0.875000 0.250000
vt 0.875000 0.250000
vt 0.625000 0.250000
vt 0.625000 0.250000
vt 0.875000 0.000000
vt 0.625000 0.000000
vt 0.625000 0.000000
vt 0.875000 0.000000
vt 0.625000 0.000000
vt 0.625000 0.000000
vt 0.625000 0.000000
vt 0.875000 0.000000
vt 0.875000 0.000000
vt 0.875000 0.000000
vn 1.0000 0.0002 -0.0012
vn 1.0000 0.0020 -0.0004
vn 1.0000 0.0020 0.0004
vn 1.0000 0.0003 0.0011
vn 1.0000 -0.0016 0.0001
vn 1.0000 -0.0009 0.0006
vn 1.0000 -0.0016 -0.0001
vn 1.0000 -0.0009 -0.0006
vn 0.0000 1.0000 0.0000
vn 0.0000 -0.0000 1.0000
vn 0.0000 -1.0000 -0.0000
vn 0.0000 0.0000 -1.0000
vn -1.0000 0.0000 0.0000
vn -0.0140 0.9999 0.0000
vn 1.0000 -0.0000 0.0000
vn 0.0035 -0.0212 -0.9998
vn 0.0035 -0.0212 0.9998
vn 0.6005 -0.5533 -0.5773
vn 0.3384 -0.8914 -0.3015
vn 0.3384 -0.8914 0.3015
vn 0.6005 -0.5533 0.5773
vn -0.5450 -0.6080 0.5774
vn -0.6081 0.5449 0.5774
vn -0.6081 0.5449 -0.5774
vn -0.5450 -0.6080 -0.5774
vn 0.0000 -0.0238 0.9997
vn 0.0000 -0.0238 -0.9997
usemtl leveltextures
s 1
f 9/1/1 10/2/2 11/3/3 12/4/4
f 12/4/4 11/3/3 13/5/5 14/6/6
f 14/6/6 13/5/5 15/7/7 16/8/8
f 16/8/8 15/7/7 10/2/2 9/1/1
f 17/9/9 18/10/9 19/11/9 20/12/9
f 11/13/10 21/14/10 22/15/10 13/16/10
f 13/17/11 22/18/11 23/19/11 15/20/11
f 15/21/12 23/22/12 24/23/12 10/24/12
f 24/25/13 23/26/13 25/27/13 26/28/13
f 23/26/13 22/29/13 27/30/13 25/27/13
f 22/29/13 21/31/13 28/32/13 27/30/13
f 29/33/14 30/34/14 31/35/14 32/36/14
f 11/3/3 10/2/2 30/37/15 29/38/15
f 10/39/16 17/40/16 31/41/16 30/42/16
f 17/9/13 20/12/13 32/36/13 31/35/13
f 20/43/17 11/44/17 29/45/17 32/46/17
f 33/47/12 34/48/12 8/49/12 1/50/12
f 34/48/11 35/51/11 5/52/11 8/49/11
f 35/51/10 36/53/10 4/54/10 5/52/10
f 36/53/9 33/47/9 1/50/9 4/54/9
f 36/53/15 35/51/15 34/48/15 33/47/15
f 4/54/13 3/55/13 6/56/13 5/52/13
f 8/49/13 7/57/13 2/58/13 1/50/13
f 2/58/9 9/59/9 12/60/9 3/55/9
f 3/55/10 12/60/10 14/61/10 6/56/10
f 6/56/11 14/61/11 16/62/11 7/57/11
f 7/57/12 16/62/12 9/59/12 2/58/12
f 26/63/12 25/64/12 37/65/12 38/66/12
f 25/64/11 27/67/11 39/68/11 37/65/11
f 27/67/10 28/69/10 40/70/10 39/68/10
f 28/69/9 26/63/9 38/66/9 40/70/9
f 38/66/15 37/65/15 41/71/15 42/72/15
f 37/65/15 39/68/15 43/73/15 41/71/15
f 39/68/15 40/70/15 44/74/15 43/73/15
f 40/70/15 38/66/15 42/72/15 44/74/15
f 42/72/12 41/71/12 45/75/12 46/76/12
f 41/71/11 43/73/11 47/77/11 45/75/11
f 43/73/10 44/74/10 48/78/10 47/77/10
f 44/74/9 42/72/9 46/76/9 48/78/9
f 45/75/13 47/77/13 48/78/13 46/76/13
usemtl leveltextures_NONE
f 1/79/18 2/80/19 3/81/20 4/82/21
f 5/83/22 6/84/23 7/85/24 8/86/25
f 21/87/13 24/88/13 26/89/13 28/90/13
f 10/91/26 24/88/26 18/92/26 17/93/26
f 24/88/15 21/87/15 19/94/15 18/92/15
f 21/87/27 11/95/27 20/96/27 19/94/27
