# This file uses centimeters as units for non-parametric coordinates.

mtllib LevelArchitecture.mtl
g default
v 58.922142 -4.517416 1.817516
v 58.922142 -1.595806 1.817519
v 58.922142 -1.595802 -0.054892
v 58.922142 -4.517409 -0.054895
v 2.352149 -0.923537 2.352149
v 2.352149 -0.923537 1.871162
v 2.352149 -0.923537 0.756709
v 2.352149 -0.923537 -2.352149
v 2.352149 0.923537 -2.352149
v 2.352149 0.923537 0.756709
v 2.352149 0.923537 1.871162
v 2.352149 0.923537 2.352149
v 6.888433 -0.923537 1.871162
v 6.911409 -8.443280 20.034647
v 6.911409 -8.443263 -18.272024
v 6.888433 -0.923537 0.756709
v 6.911408 14.203478 -18.272020
v 6.888433 0.923537 0.756709
v 6.911408 14.203461 20.034651
v 6.888433 0.923537 1.871162
v 32.834545 -4.625718 20.125593
v 48.696621 -4.625718 20.125593
v 48.696621 -4.625701 -18.362972
v 32.834545 -4.625701 -18.362972
v 48.696621 -8.443263 -18.272024
v 48.696621 14.203478 -18.272020
v 48.696621 14.203461 20.034651
v 48.696621 -8.443280 20.034647
v -2.352149 -0.923537 2.352149
v -2.352149 0.923537 2.352149
v -2.352149 0.923537 -2.352149
v -2.352149 -0.923537 -2.352149
v 48.696621 -1.595806 1.817518
v 48.696621 -4.517413 1.817517
v 48.696621 -1.595805 -0.054893
v 48.696621 -4.517411 -0.054894
v 6.911409 -8.859172 -18.362974
v 6.911409 -8.859189 20.125593
v 32.834545 -8.495790 20.125593
v 32.834545 -8.495772 -18.362972
v 58.922142 -10.859325 14.709003
v 58.922142 4.746084 14.709044
v 58.922142 4.746108 -12.946373
v 58.922142 -10.859289 -12.946421
v 90.816521 -10.859325 14.709003
v 90.816521 4.746085 14.709044
v 90.816521 4.746108 -12.946373
v 90.816521 -10.859289 -12.946421
vt 0.625000 0.000000
vt 0.625000 0.250000
vt 0.875000 0.250000
vt 0.875000 0.000000
vt 0.625000 0.000000
vt 0.625000 0.000000
vt 0.875000 0.000000
vt 0.875000 0.000000
vt 0.875000 0.250000
vt 0.875000 0.250000
vt 0.625000 0.250000
vt 0.625000 0.250000
vt 0.625000 0.000000
vt 0.625000 0.000000
vt 0.875000 0.000000
vt 0.875000 0.000000
vt 0.875000 0.250000
vt 0.875000 0.250000
vt 0.625000 0.250000
vt 0.625000 0.250000
vt 0.625000 0.000000
vt 0.625000 0.000000
vt 0.875000 0.000000
vt 0.875000 0.000000
vt 0.875000 0.000000
vt 0.875000 0.250000
vt 0.625000 0.250000
vt 0.625000 0.000000
vt 0.625000 0.250000
vt 0.625000 0.000000
vt 0.875000 0.250000
vt 0.875000 0.000000
vt 0.875000 0.000000
vt 0.625000 0.000000
vt 0.625000 0.000000
vt 0.875000 0.000000
vt 0.375000 0.000000
vt 0.375000 0.250000
vt 0.375000 0.500000
vt 0.625000 0.500000
vt 0.375000 0.750000
vt 0.625000 0.750000
vt 0.375000 1.000000
vt 0.625000 1.000000
vt 0.125000 0.000000
vt 0.125000 0.250000
vt 0.000000 0.000000
vt 1.000000 0.000000
vt 1.000000 1.000000
vt 0.000000 1.000000
vt 0.000000 0.000000
vt 1.000000 0.000000
vt 1.000000 1.000000
vt 0.000000 1.000000
vt 0.000000 0.000000
vt 1.000000 0.000000
vt 1.000000 1.000000
vt 0.000000 1.000000
vt 0.000000 0.000000
vt 1.000000 0.000000
vt 1.000000 1.000000
vt 0.000000 1.000000
vt 0.000000 0.000000
vt 1.000000 0.000000
vt 0.500000 1.000000
vt 0.500000 1.000000
vt 0.000000 0.000000
vt 1.000000 0.000000
vt 0.500000 1.000000
vt 0.000000 0.000000
vt 1.000000 0.000000
vt 0.500000 1.000000
vt 0.000000 0.000000
vt 1.000000 0.000000
vn 0.000000 0.000000 0.000000
vn 0.000000 0.000000 0.000000
vn 0.000000 0.000000 0.000000
vn 0.000000 0.000000 0.000000
vn 0.000000 0.000000 0.000000
vn 0.000000 0.000000 0.000000
vn 0.000000 0.000000 0.000000
vn 0.000000 0.000000 0.000000
vn 0.999995 0.003056 0.000000
vn 0.999995 0.003056 0.000000
vn 0.999995 0.003056 0.000000
vn 0.999995 0.003056 0.000000
vn 0.999999 0.000000 0.001207
vn 0.999999 0.000000 0.001207
vn 0.999999 0.000000 0.001207
vn 0.999999 0.000000 0.001207
vn 0.999999 -0.001730 -0.000000
vn 0.999999 -0.001730 -0.000000
vn 0.999999 -0.001730 -0.000000
vn 0.999999 -0.001730 -0.000000
vn 0.999999 0.000000 -0.001265
vn 0.999999 0.000000 -0.001265
vn 0.999999 0.000000 -0.001265
vn 0.999999 0.000000 -0.001265
vn 0.000000 1.000000 0.000000
vn 0.000000 1.000000 0.000000
vn 0.000000 1.000000 0.000000
vn 0.000000 1.000000 0.000000
vn 0.000000 -0.000000 1.000000
vn 0.000000 -0.000000 1.000000
vn 0.000000 -0.000000 1.000000
vn 0.000000 -0.000000 1.000000
vn 0.000000 -1.000000 -0.000000
vn 0.000000 -1.000000 -0.000000
vn 0.000000 -1.000000 -0.000000
vn 0.000000 -1.000000 -0.000000
vn 0.000000 0.000000 -1.000000
vn 0.000000 0.000000 -1.000000
vn 0.000000 0.000000 -1.000000
vn 0.000000 0.000000 -1.000000
vn -1.000000 -0.000000 0.000000
vn -1.000000 -0.000000 0.000000
vn -1.000000 -0.000000 0.000000
vn -1.000000 -0.000000 0.000000
vn -1.000000 -0.000000 0.000000
vn -1.000000 -0.000000 0.000000
vn -1.000000 -0.000000 0.000000
vn -1.000000 -0.000000 0.000000
vn -1.000000 -0.000000 0.000000
vn -1.000000 -0.000000 0.000000
vn -1.000000 -0.000000 0.000000
vn -1.000000 -0.000000 0.000000
vn -1.000000 0.000002 0.000000
vn -1.000000 0.000002 0.000000
vn -1.000000 0.000002 0.000000
vn -1.000000 0.000002 0.000000
vn 0.000000 -0.023816 0.999716
vn 0.000000 -0.023816 0.999716
vn 0.000000 -0.023816 0.999716
vn 0.000000 -0.023816 0.999716
vn 1.000000 0.000000 0.000000
vn 1.000000 0.000000 0.000000
vn 1.000000 0.000000 0.000000
vn 1.000000 0.000000 0.000000
vn 0.000000 -0.023817 -0.999716
vn 0.000000 -0.023817 -0.999716
vn 0.000000 -0.023817 -0.999716
vn 0.000000 -0.023817 -0.999716
vn -0.014017 0.999902 0.000000
vn -0.014017 0.999902 0.000000
vn -0.014017 0.999902 0.000000
vn -0.014017 0.999902 0.000000
vn 1.000000 -0.000001 0.000000
vn 1.000000 -0.000001 0.000000
vn 1.000000 -0.000001 0.000000
vn 1.000000 -0.000001 0.000000
vn 0.003465 -0.021215 -0.999769
vn 0.003465 -0.021215 -0.999769
vn 0.003465 -0.021215 -0.999769
vn 0.003465 -0.021215 -0.999769
vn -1.000000 0.000000 0.000000
vn -1.000000 0.000000 0.000000
vn -1.000000 0.000000 0.000000
vn -1.000000 0.000000 0.000000
vn 0.003465 -0.021215 0.999769
vn 0.003465 -0.021215 0.999769
vn 0.003465 -0.021215 0.999769
vn 0.003465 -0.021215 0.999769
vn 0.000000 0.000000 -1.000000
vn 0.000000 0.000000 -1.000000
vn 0.000000 0.000000 -1.000000
vn 0.000000 0.000000 -1.000000
vn 0.000000 -1.000000 0.000000
vn 0.000000 -1.000000 0.000000
vn 0.000000 -1.000000 0.000000
vn 0.000000 -1.000000 0.000000
vn 0.000000 0.000000 1.000000
vn 0.000000 0.000000 1.000000
vn 0.000000 0.000000 1.000000
vn 0.000000 0.000000 1.000000
vn 0.000000 1.000000 0.000000
vn 0.000000 1.000000 0.000000
vn 0.000000 1.000000 0.000000
vn 0.000000 1.000000 0.000000
vn 1.000000 0.000000 0.000000
vn 1.000000 0.000000 0.000000
vn 1.000000 0.000000 0.000000
vn 1.000000 0.000000 0.000000
vn -1.000000 0.000000 0.000000
vn -1.000000 0.000000 0.000000
vn -1.000000 0.000000 0.000000
vn -1.000000 0.000000 0.000000
vn -1.000000 0.000000 0.000000
vn -1.000000 0.000000 0.000000
vn -1.000000 0.000000 0.000000
vn -1.000000 0.000000 0.000000
vn 0.000000 1.000000 0.000000
vn 0.000000 1.000000 0.000000
vn 0.000000 1.000000 0.000000
vn 0.000000 1.000000 0.000000
vn 0.000000 0.000000 1.000000
vn 0.000000 0.000000 1.000000
vn 0.000000 0.000000 1.000000
vn 0.000000 0.000000 1.000000
vn 0.000000 -1.000000 0.000000
vn 0.000000 -1.000000 0.000000
vn 0.000000 -1.000000 0.000000
vn 0.000000 -1.000000 0.000000
vn 0.000000 0.000000 -1.000000
vn 0.000000 0.000000 -1.000000
vn 0.000000 0.000000 -1.000000
vn 0.000000 0.000000 -1.000000
vn 0.000000 0.000001 -1.000000
vn 0.000000 0.000001 -1.000000
vn 0.000000 0.000001 -1.000000
vn 0.000000 0.000001 -1.000000
vn 0.000000 -1.000000 -0.000001
vn 0.000000 -1.000000 -0.000001
vn 0.000000 -1.000000 -0.000001
vn 0.000000 -1.000000 -0.000001
vn -0.000000 -0.000001 1.000000
vn -0.000000 -0.000001 1.000000
vn -0.000000 -0.000001 1.000000
vn -0.000000 -0.000001 1.000000
vn 0.000000 1.000000 0.000002
vn 0.000000 1.000000 0.000002
vn 0.000000 1.000000 0.000002
vn 0.000000 1.000000 0.000002
vn 1.000000 0.000000 0.000000
vn 1.000000 0.000000 0.000000
vn 1.000000 0.000000 0.000000
vn 1.000000 0.000000 0.000000
vn 1.000000 0.000001 0.000000
vn 1.000000 0.000001 0.000000
vn 1.000000 0.000001 0.000000
vn 1.000000 0.000001 0.000000
vn 1.000000 -0.000001 0.000000
vn 1.000000 -0.000001 0.000000
vn 1.000000 -0.000001 0.000000
vn 1.000000 -0.000001 0.000000
vn 1.000000 0.000001 0.000000
vn 1.000000 0.000001 0.000000
vn 1.000000 0.000001 0.000000
vn 1.000000 0.000001 0.000000
vn 0.000000 0.000003 -1.000000
vn 0.000000 0.000003 -1.000000
vn 0.000000 0.000003 -1.000000
vn 0.000000 0.000003 -1.000000
vn 0.000000 -1.000000 -0.000001
vn 0.000000 -1.000000 -0.000001
vn 0.000000 -1.000000 -0.000001
vn 0.000000 -1.000000 -0.000001
vn 0.000000 -0.000003 1.000000
vn 0.000000 -0.000003 1.000000
vn 0.000000 -0.000003 1.000000
vn 0.000000 -0.000003 1.000000
vn 0.000000 1.000000 0.000001
vn 0.000000 1.000000 0.000001
vn 0.000000 1.000000 0.000001
vn 0.000000 1.000000 0.000001
vn -1.000000 0.000000 0.000000
vn -1.000000 0.000000 0.000000
vn -1.000000 0.000000 0.000000
vn -1.000000 0.000000 0.000000
s off
g LevelArchitecture_LevelArchitecture_Mesh
usemtl LevelArchitecture_LevelArchitecture_LevelArchitecture_initialShadingGroup
f 5/5/1 6/6/2 7/7/3 8/8/4
f 9/9/5 10/10/6 11/11/7 12/12/8
f 13/13/9 14/14/10 15/15/11 16/16/12
f 16/16/13 15/15/14 17/17/15 18/18/16
f 18/18/17 17/17/18 19/19/19 20/20/20
f 20/20/21 19/19/22 14/14/23 13/13/24
f 21/21/25 22/22/26 23/23/27 24/24/28
f 15/15/29 25/25/30 26/26/31 17/17/32
f 17/17/33 26/26/34 27/27/35 19/19/36
f 19/19/37 27/27/38 28/28/39 14/14/40
f 28/28/41 27/27/42 33/29/43 34/30/44
f 27/27/45 26/26/46 35/31/47 33/29/48
f 26/26/49 25/25/50 36/32/51 35/31/52
f 25/25/53 28/28/54 34/30/55 36/32/56
f 14/14/57 28/28/58 22/22/59 21/21/60
f 28/28/61 25/25/62 23/23/63 22/22/64
f 25/25/65 15/15/66 24/24/67 23/23/68
f 37/33/69 38/34/70 39/35/71 40/36/72
f 15/15/73 14/14/74 38/34/75 37/33/76
f 14/14/77 21/21/78 39/35/79 38/34/80
f 21/21/81 24/24/82 40/36/83 39/35/84
f 24/24/85 15/15/86 37/33/87 40/36/88
usemtl LevelArchitecture_LevelArchitecture_LevelArchitecture_lambert2SG
f 29/37/89 30/38/90 12/12/91 5/5/92
f 30/38/93 31/39/94 9/40/95 12/12/96
f 31/39/97 32/41/98 8/42/99 9/40/100
f 32/41/101 29/43/102 5/44/103 8/42/104
f 32/45/105 31/46/106 30/38/107 29/37/108
f 8/8/109 7/7/110 10/10/111 9/9/112
f 12/12/113 11/11/114 6/6/115 5/5/116
f 6/6/117 13/13/118 16/16/119 7/7/120
f 7/7/121 16/16/122 18/18/123 10/10/124
f 10/10/125 18/18/126 20/20/127 11/11/128
f 11/11/129 20/20/130 13/13/131 6/6/132
f 34/30/133 33/29/134 2/2/135 1/1/136
f 33/29/137 35/31/138 3/3/139 2/2/140
f 35/31/141 36/32/142 4/4/143 3/3/144
f 36/32/145 34/30/146 1/1/147 4/4/148
usemtl lambert2SG
f 1/47/149 2/48/150 42/49/151 41/50/152
f 2/51/153 3/52/154 43/53/155 42/54/156
f 3/55/157 4/56/158 44/57/159 43/58/160
f 4/59/161 1/60/162 41/61/163 44/62/164
f 41/63/165 42/64/166 46/65/167 45/66/168
f 42/67/169 43/68/170 47/69/171 46/65/172
f 43/70/173 44/71/174 48/72/175 47/69/176
f 44/73/177 41/74/178 45/66/179 48/72/180
f 46/65/181 47/69/182 48/72/183 45/66/184
