# This file uses centimeters as units for non-parametric coordinates.

mtllib obj_glass_door.mtl
g default
v 0.331366 -0.872511 0.897100
v 0.345078 -0.962454 0.940131
v 0.273421 -0.962454 0.963414
v 0.259221 -0.872511 0.920542
v 0.592367 -0.872511 0.750795
v 0.618705 -0.962454 0.787483
v 0.557750 -0.962454 0.831769
v 0.530997 -0.872511 0.795383
v 0.795383 -0.872511 0.530997
v 0.831769 -0.962454 0.557750
v 0.787482 -0.962454 0.618706
v 0.750795 -0.872511 0.592367
v 0.329823 -0.028210 1.120946
v 0.326435 -0.093532 1.110524
v 0.388658 -0.093532 1.090306
v 0.392043 -0.028210 1.100729
v 0.660072 -0.028210 0.964162
v 0.653629 -0.093532 0.955297
v 0.706558 -0.093532 0.916841
v 0.712999 -0.028210 0.925708
v 0.925708 -0.028210 0.712999
v 0.916841 -0.093532 0.706559
v 0.955297 -0.093532 0.653629
v 0.964162 -0.028210 0.660072
v 0.359153 -0.028137 0.999489
v 0.355686 -0.093401 0.988806
v 0.293449 -0.093401 1.009028
v 0.296924 -0.028137 1.019709
v 0.650434 -0.028137 0.839586
v 0.643835 -0.093401 0.830497
v 0.590894 -0.093401 0.868961
v 0.597499 -0.028137 0.878046
v 0.878046 -0.028137 0.597499
v 0.868961 -0.093401 0.590894
v 0.830497 -0.093401 0.643835
v 0.839586 -0.028137 0.650434
v 0.245817 -0.779943 0.877840
v 0.317111 -0.779943 0.854675
v 0.505053 -0.779943 0.758914
v 0.565700 -0.779943 0.714851
v 0.714851 -0.779943 0.565700
v 0.758914 -0.779943 0.505053
vt 0.564255 0.312500
vt 0.564024 0.327531
vt 0.576755 0.312500
vt 0.576524 0.327531
vt 0.589024 0.327531
vt 0.561367 0.675388
vt 0.561401 0.688440
vt 0.563957 0.688440
vt 0.563695 0.675388
vt 0.573867 0.675388
vt 0.573901 0.688440
vt 0.576457 0.688440
vt 0.576195 0.675388
vt 0.586367 0.675388
vt 0.586401 0.688440
vt 0.588695 0.675388
vt 0.543471 0.694385
vt 0.552434 0.697262
vt 0.552626 0.697360
vt 0.587499 0.715129
vt 0.595135 0.720635
vt 0.595288 0.720787
vt 0.622963 0.748463
vt 0.628524 0.756059
vt 0.628622 0.756251
vt 0.541843 0.694127
vt 0.553734 0.697924
vt 0.586031 0.714380
vt 0.596167 0.721667
vt 0.621798 0.747297
vt 0.629186 0.757359
vt 0.561060 0.327531
vt 0.573560 0.327531
vt 0.586060 0.327531
vt 0.543172 0.694338
vt 0.587230 0.714991
vt 0.622749 0.748249
vt 0.562500 0.312500
vt 0.560645 0.312500
vt 0.575000 0.312500
vt 0.573145 0.312500
vt 0.587500 0.312500
vt 0.585645 0.312500
vt 0.562500 0.688440
vt 0.575000 0.688440
vt 0.587500 0.688440
vn 0.413852 -0.237006 0.878951
vn -0.376357 -0.445905 -0.812111
vn -0.435795 -0.445905 -0.781826
vn 0.467830 -0.237006 0.851448
vn 0.298658 -0.256772 0.919169
vn 0.418005 -0.174203 0.891586
vn 0.304179 -0.176277 0.936163
vn 0.665207 -0.237006 0.708045
vn -0.608892 -0.445905 -0.656063
vn -0.656063 -0.445905 -0.608892
vn 0.708045 -0.237006 0.665207
vn 0.673062 -0.174203 0.718778
vn 0.475611 -0.174203 0.862234
vn 0.781893 -0.256772 0.568078
vn 0.796349 -0.176277 0.578580
vn 0.718778 -0.174203 0.673061
vn 0.422591 -0.164128 0.891336
vn 0.472714 -0.164128 0.865797
vn 0.677345 -0.164128 0.717123
vn 0.717123 -0.164129 0.677345
vn -0.413594 0.194216 -0.889506
vn -0.419718 0.168300 -0.891915
vn -0.474871 0.168300 -0.863813
vn -0.476522 0.194216 -0.857442
vn -0.302978 0.196732 -0.932471
vn -0.418955 0.121497 -0.899842
vn -0.306967 0.114994 -0.944748
vn -0.668223 0.194216 -0.718163
vn -0.674792 0.168300 -0.718562
vn -0.718562 0.168300 -0.674792
vn -0.718163 0.194216 -0.668223
vn -0.676516 0.121497 -0.726336
vn -0.481732 0.121497 -0.867855
vn -0.793207 0.196732 -0.576298
vn -0.803650 0.114994 -0.583886
vn -0.726336 0.121497 -0.676516
vn -0.276159 -0.448724 -0.849931
vn -0.722995 -0.448724 -0.525286
vn 0.304760 -0.165459 0.937947
vn 0.797866 -0.165461 0.579684
vn -0.304540 0.169606 -0.937277
vn -0.797296 0.169607 -0.579270
vn 0.000212 1.000000 0.000652
vn 0.000294 1.000000 0.000626
vn 0.000297 1.000000 0.000625
vn 0.000212 1.000000 0.000652
vn 0.000333 1.000000 0.000606
vn 0.000331 1.000000 0.000607
vn 0.000473 1.000000 0.000504
vn 0.000476 1.000000 0.000502
vn 0.000504 1.000000 0.000473
vn 0.000502 1.000000 0.000476
vn 0.000555 1.000000 0.000403
vn 0.000555 1.000000 0.000403
vn -0.949755 0.005463 0.312948
vn -0.949869 0.004986 0.312608
vn -0.949830 0.005150 0.312724
vn -0.949755 0.005463 0.312948
vn -0.951039 0.000031 0.309072
vn -0.951039 0.000031 0.309072
vn 0.587832 0.000029 -0.808983
vn 0.590833 0.004986 -0.806778
vn 0.590932 0.005150 -0.806705
vn 0.587832 0.000029 -0.808983
vn 0.591121 0.005463 -0.806564
vn 0.591121 0.005463 -0.806564
vn -0.728358 -0.435269 -0.529183
vn -0.663197 -0.433321 -0.610248
vn -0.610248 -0.433321 -0.663197
vn -0.442161 -0.433321 -0.785319
vn -0.375441 -0.433321 -0.819315
vn -0.278209 -0.435269 -0.856236
s 1
g pCylinder1
usemtl initialShadingGroup
f 2/2/1 1/1/2 8/41/3 7/33/4
f 3/32/5 2/2/1 15/9/6 14/6/7
f 6/4/8 5/3/9 12/43/10 11/34/11
f 7/33/4 6/4/8 19/13/12 18/10/13
f 11/34/11 10/5/14 23/16/15 22/14/16
f 16/8/17 15/9/6 18/10/13 17/11/18
f 20/12/19 19/13/12 22/14/16 21/15/20
s 2
f 26/19/21 25/18/22 32/20/23 31/36/24
f 27/35/25 26/19/21 38/27/26 37/26/27
f 30/22/28 29/21/29 36/23/30 35/37/31
f 31/36/24 30/22/28 40/29/32 39/28/33
f 35/37/31 34/25/34 42/31/35 41/30/36
s 1
f 2/2/1 7/33/4 18/10/13 15/9/6
f 6/4/8 11/34/11 22/14/16 19/13/12
s 2
f 26/19/21 31/36/24 39/28/33 38/27/26
f 30/22/28 35/37/31 41/30/36 40/29/32
s 1
f 1/38/2 2/2/1 3/32/5 4/39/37
f 5/40/9 6/4/8 7/33/4 8/41/3
f 9/42/38 10/5/14 11/34/11 12/43/10
f 13/7/39 14/6/7 15/9/6 16/44/17
f 17/11/18 18/10/13 19/13/12 20/45/19
f 21/15/20 22/14/16 23/16/15 24/46/40
s 2
f 25/18/22 26/19/21 27/35/25 28/17/41
f 29/21/29 30/22/28 31/36/24 32/20/23
f 33/24/42 34/25/34 35/37/31 36/23/30
s 3
f 13/7/43 16/44/44 25/18/45 28/17/46
f 16/8/44 17/11/47 32/20/48 25/18/45
f 17/11/47 20/45/49 29/21/50 32/20/48
f 20/12/49 21/15/51 36/23/52 29/21/50
f 21/15/51 24/46/53 33/24/54 36/23/52
s 4
f 3/32/55 14/6/56 27/35/57 37/26/58
f 14/6/56 13/7/59 28/17/60 27/35/57
s 5
f 24/46/61 23/16/62 34/25/63 33/24/64
f 23/16/62 10/5/65 42/31/66 34/25/63
s 2
f 9/42/67 12/43/68 41/30/36 42/31/35
f 12/43/68 5/3/69 40/29/32 41/30/36
f 5/40/69 8/41/70 39/28/33 40/29/32
f 8/41/70 1/1/71 38/27/26 39/28/33
f 1/38/71 4/39/72 37/26/27 38/27/26
