# Blender v2.79 (sub 0) OBJ File: ''
# www.blender.org
mtllib schluesselloch.mtl
o Cube
v 0.476221 -1.000000 -0.745256
v 0.476221 -1.000000 0.745256
v -0.476221 -1.000000 0.745256
v -0.476220 -1.000000 -0.745256
v 0.476221 1.000000 -0.745256
v 0.476220 1.000000 0.745256
v -0.476221 1.000000 0.745256
v -0.476221 1.000000 -0.745256
vt 0.303918 0.999802
vt 0.000198 0.999802
vt 0.000198 0.712247
vt 0.303918 0.712247
vt 0.696082 0.408131
vt 0.983638 0.408131
vt 0.983638 0.711851
vt 0.696082 0.711851
vt 0.303918 0.000198
vt 0.303918 0.407735
vt 0.000198 0.407735
vt 0.000198 0.000198
vt 0.695686 0.408131
vt 0.695686 0.815669
vt 0.408131 0.815669
vt 0.408131 0.408131
vt 0.000198 0.408131
vt 0.407735 0.408131
vt 0.407735 0.711851
vt 0.000198 0.711851
vt 0.711851 0.287753
vt 0.304314 0.287753
vt 0.304314 0.000198
vt 0.711851 0.000198
vn 0.0000 -1.0000 0.0000
vn 0.0000 1.0000 -0.0000
vn 1.0000 0.0000 0.0000
vn -0.0000 -0.0000 1.0000
vn -1.0000 -0.0000 -0.0000
vn 0.0000 0.0000 -1.0000
usemtl schluesselloch
s off
f 1/1/1 2/2/1 3/3/1 4/4/1
f 5/5/2 8/6/2 7/7/2 6/8/2
f 1/9/3 5/10/3 6/11/3 2/12/3
f 2/13/4 6/14/4 7/15/4 3/16/4
f 3/17/5 7/18/5 8/19/5 4/20/5
f 5/21/6 1/22/6 4/23/6 8/24/6
