# Blender v2.78 (sub 0) OBJ File: ''
# www.blender.org
mtllib zielscheibe.mtl
o pCylinder2
v 0.137976 6.076848 -0.591766
v 0.137976 5.804842 -1.125607
v -0.172828 5.804842 -1.125607
v -0.172828 6.076848 -0.591766
v 0.137976 5.381184 -1.549265
v -0.172828 5.381184 -1.549265
v 0.137976 4.847343 -1.821270
v -0.172828 4.847343 -1.821270
v 0.137976 4.255576 -1.914997
v -0.172828 4.255576 -1.914997
v 0.137976 3.663809 -1.821270
v -0.172828 3.663809 -1.821270
v 0.137976 3.129969 -1.549266
v -0.172828 3.129969 -1.549266
v 0.137976 2.706311 -1.125607
v -0.172828 2.706311 -1.125607
v 0.137976 2.434306 -0.591767
v -0.172828 2.434306 -0.591767
v 0.137976 2.340579 0.000000
v -0.172828 2.340579 0.000000
v 0.137976 2.434306 0.591767
v -0.172828 2.434306 0.591767
v 0.137976 2.706311 1.125607
v -0.172828 2.706311 1.125607
v 0.137976 3.129969 1.549266
v -0.172828 3.129969 1.549266
v 0.137976 3.663810 1.821271
v -0.172828 3.663810 1.821271
v 0.137976 4.255575 1.914998
v -0.172828 4.255575 1.914998
v 0.137976 4.847342 1.821271
v -0.172828 4.847342 1.821271
v 0.137976 5.381182 1.549266
v -0.172828 5.381182 1.549266
v 0.137976 5.804841 1.125608
v -0.172828 5.804841 1.125608
v 0.137976 6.076847 0.591768
v -0.172828 6.076847 0.591768
v 0.137976 6.170573 0.000001
v -0.172828 6.170573 0.000001
v 0.137976 4.255576 0.000001
v -0.172828 4.255576 0.000001
vt 0.3750 0.3125
vt 0.3875 0.3125
vt 0.3875 0.6884
vt 0.3750 0.6884
vt 0.4000 0.3125
vt 0.4000 0.6884
vt 0.4125 0.3125
vt 0.4125 0.6884
vt 0.4250 0.3125
vt 0.4250 0.6884
vt 0.4375 0.3125
vt 0.4375 0.6884
vt 0.4500 0.3125
vt 0.4500 0.6884
vt 0.4625 0.3125
vt 0.4625 0.6884
vt 0.4750 0.3125
vt 0.4750 0.6884
vt 0.4875 0.3125
vt 0.4875 0.6884
vt 0.5000 0.3125
vt 0.5000 0.6884
vt 0.5125 0.3125
vt 0.5125 0.6884
vt 0.5250 0.3125
vt 0.5250 0.6884
vt 0.5375 0.3125
vt 0.5375 0.6884
vt 0.5500 0.3125
vt 0.5500 0.6884
vt 0.5625 0.3125
vt 0.5625 0.6884
vt 0.5750 0.3125
vt 0.5750 0.6884
vt 0.5875 0.3125
vt 0.5875 0.6884
vt 0.6000 0.3125
vt 0.6000 0.6884
vt 0.6125 0.3125
vt 0.6125 0.6884
vt 0.6250 0.3125
vt 0.6250 0.6884
vt 0.6264 0.0644
vt 0.6486 0.1080
vt 0.5250 0.4937
vt 0.5918 0.0298
vt 0.5483 0.0076
vt 0.5000 -0.0000
vt 0.4517 0.0076
vt 0.4082 0.0298
vt 0.3736 0.0644
vt 0.3514 0.1080
vt 0.3438 0.1562
vt 0.3514 0.2045
vt 0.3736 0.2481
vt 0.4082 0.2827
vt 0.4517 0.3049
vt 0.5000 0.3125
vt 0.5483 0.3049
vt 0.5918 0.2827
vt 0.6264 0.2481
vt 0.6486 0.2045
vt 0.6562 0.1562
vt 0.6486 0.8920
vt 0.6264 0.9356
vt 0.5281 0.4953
vt 0.5918 0.9702
vt 0.5483 0.9924
vt 0.5000 1.0000
vt 0.4517 0.9924
vt 0.4082 0.9702
vt 0.3736 0.9356
vt 0.3514 0.8920
vt 0.3438 0.8438
vt 0.3514 0.7955
vt 0.3736 0.7519
vt 0.4082 0.7173
vt 0.4517 0.6951
vt 0.5000 0.6875
vt 0.5483 0.6951
vt 0.5918 0.7173
vt 0.6264 0.7519
vt 0.6486 0.7955
vt 0.6562 0.8438
vn 0.0000 0.9511 -0.3090
vn 0.0000 0.8090 -0.5878
vn 0.0000 0.5878 -0.8090
vn 0.0000 0.3090 -0.9511
vn 0.0000 0.0000 -1.0000
vn 0.0000 -0.3090 -0.9511
vn 0.0000 -0.5878 -0.8090
vn 0.0000 -0.8090 -0.5878
vn 0.0000 -0.9511 -0.3090
vn 0.0000 -1.0000 -0.0000
vn 0.0000 -0.9511 0.3090
vn 0.0000 -0.8090 0.5878
vn 0.0000 -0.5878 0.8090
vn 0.0000 -0.3090 0.9511
vn 0.0000 -0.0000 1.0000
vn 0.0000 0.3090 0.9511
vn 0.0000 0.5878 0.8090
vn 0.0000 0.8090 0.5878
vn 0.0000 0.9511 0.3090
vn 0.0000 1.0000 0.0000
vn 1.0000 0.0000 0.0000
vn -1.0000 0.0000 0.0000
usemtl Material.003
s 1
f 1/1/1 2/2/2 3/3/2 4/4/1
f 2/2/2 5/5/3 6/6/3 3/3/2
f 5/5/3 7/7/4 8/8/4 6/6/3
f 7/7/4 9/9/5 10/10/5 8/8/4
f 9/9/5 11/11/6 12/12/6 10/10/5
f 11/11/6 13/13/7 14/14/7 12/12/6
f 13/13/7 15/15/8 16/16/8 14/14/7
f 15/15/8 17/17/9 18/18/9 16/16/8
f 17/17/9 19/19/10 20/20/10 18/18/9
f 19/19/10 21/21/11 22/22/11 20/20/10
f 21/21/11 23/23/12 24/24/12 22/22/11
f 23/23/12 25/25/13 26/26/13 24/24/12
f 25/25/13 27/27/14 28/28/14 26/26/13
f 27/27/14 29/29/15 30/30/15 28/28/14
f 29/29/15 31/31/16 32/32/16 30/30/15
f 31/31/16 33/33/17 34/34/17 32/32/16
f 33/33/17 35/35/18 36/36/18 34/34/17
f 35/35/18 37/37/19 38/38/19 36/36/18
f 37/37/19 39/39/20 40/40/20 38/38/19
f 39/39/20 1/41/1 4/42/1 40/40/20
f 2/43/21 1/44/21 41/45/21
f 5/46/21 2/43/21 41/45/21
f 7/47/21 5/46/21 41/45/21
f 9/48/21 7/47/21 41/45/21
f 11/49/21 9/48/21 41/45/21
f 13/50/21 11/49/21 41/45/21
f 15/51/21 13/50/21 41/45/21
f 17/52/21 15/51/21 41/45/21
f 19/53/21 17/52/21 41/45/21
f 21/54/21 19/53/21 41/45/21
f 23/55/21 21/54/21 41/45/21
f 25/56/21 23/55/21 41/45/21
f 27/57/21 25/56/21 41/45/21
f 29/58/21 27/57/21 41/45/21
f 31/59/21 29/58/21 41/45/21
f 33/60/21 31/59/21 41/45/21
f 35/61/21 33/60/21 41/45/21
f 37/62/21 35/61/21 41/45/21
f 39/63/21 37/62/21 41/45/21
f 1/44/21 39/63/21 41/45/21
f 4/64/22 3/65/22 42/66/22
f 3/65/22 6/67/22 42/66/22
f 6/67/22 8/68/22 42/66/22
f 8/68/22 10/69/22 42/66/22
f 10/69/22 12/70/22 42/66/22
f 12/70/22 14/71/22 42/66/22
f 14/71/22 16/72/22 42/66/22
f 16/72/22 18/73/22 42/66/22
f 18/73/22 20/74/22 42/66/22
f 20/74/22 22/75/22 42/66/22
f 22/75/22 24/76/22 42/66/22
f 24/76/22 26/77/22 42/66/22
f 26/77/22 28/78/22 42/66/22
f 28/78/22 30/79/22 42/66/22
f 30/79/22 32/80/22 42/66/22
f 32/80/22 34/81/22 42/66/22
f 34/81/22 36/82/22 42/66/22
f 36/82/22 38/83/22 42/66/22
f 38/83/22 40/84/22 42/66/22
f 40/84/22 4/64/22 42/66/22
o pCylinder1
v 0.072436 -2.825548 -0.029198
v 0.059015 -2.825548 -0.055538
v 0.059015 2.789388 -0.055538
v 0.072436 2.789388 -0.029198
v 0.038112 -2.825548 -0.076441
v 0.038112 2.789388 -0.076441
v 0.011772 -2.825548 -0.089862
v 0.011772 2.789388 -0.089862
v -0.017426 -2.825548 -0.094487
v -0.017426 2.789388 -0.094487
v -0.046624 -2.825548 -0.089862
v -0.046624 2.789388 -0.089862
v -0.072964 -2.825548 -0.076441
v -0.072964 2.789388 -0.076441
v -0.093867 -2.825548 -0.055538
v -0.093867 2.789388 -0.055538
v -0.107288 -2.825548 -0.029198
v -0.107288 2.789388 -0.029198
v -0.111913 -2.825548 -0.000000
v -0.111913 2.789388 0.000000
v -0.107288 -2.825548 0.029198
v -0.107288 2.789388 0.029198
v -0.093867 -2.825548 0.055538
v -0.093867 2.789388 0.055538
v -0.072964 -2.825548 0.076441
v -0.072964 2.789388 0.076441
v -0.046624 -2.825548 0.089862
v -0.046624 2.789388 0.089862
v -0.017426 -2.825548 0.094487
v -0.017426 2.789388 0.094487
v 0.011772 -2.825548 0.089862
v 0.011772 2.789388 0.089862
v 0.038112 -2.825548 0.076441
v 0.038112 2.789388 0.076441
v 0.059015 -2.825548 0.055538
v 0.059015 2.789388 0.055538
v 0.072436 -2.825548 0.029198
v 0.072436 2.789388 0.029198
v 0.077061 -2.825548 -0.000000
v 0.077061 2.789388 0.000000
v -0.017426 -2.825548 -0.000000
v -0.017426 2.789388 0.000000
vt 0.3750 0.3125
vt 0.3875 0.3125
vt 0.3875 0.6884
vt 0.3750 0.6884
vt 0.4000 0.3125
vt 0.4000 0.6884
vt 0.4125 0.3125
vt 0.4125 0.6884
vt 0.4250 0.3125
vt 0.4250 0.6884
vt 0.4375 0.3125
vt 0.4375 0.6884
vt 0.4500 0.3125
vt 0.4500 0.6884
vt 0.4625 0.3125
vt 0.4625 0.6884
vt 0.4750 0.3125
vt 0.4750 0.6884
vt 0.4875 0.3125
vt 0.4875 0.6884
vt 0.5000 0.3125
vt 0.5000 0.6884
vt 0.5125 0.3125
vt 0.5125 0.6884
vt 0.5250 0.3125
vt 0.5250 0.6884
vt 0.5375 0.3125
vt 0.5375 0.6884
vt 0.5500 0.3125
vt 0.5500 0.6884
vt 0.5625 0.3125
vt 0.5625 0.6884
vt 0.5750 0.3125
vt 0.5750 0.6884
vt 0.5875 0.3125
vt 0.5875 0.6884
vt 0.6000 0.3125
vt 0.6000 0.6884
vt 0.6125 0.3125
vt 0.6125 0.6884
vt 0.6250 0.3125
vt 0.6250 0.6884
vt 0.6264 0.0644
vt 0.6486 0.1080
vt 0.5000 0.1500
vt 0.5918 0.0298
vt 0.5483 0.0076
vt 0.5000 -0.0000
vt 0.4517 0.0076
vt 0.4082 0.0298
vt 0.3736 0.0644
vt 0.3514 0.1080
vt 0.3438 0.1562
vt 0.3514 0.2045
vt 0.3736 0.2481
vt 0.4082 0.2827
vt 0.4517 0.3049
vt 0.5000 0.3125
vt 0.5483 0.3049
vt 0.5918 0.2827
vt 0.6264 0.2481
vt 0.6486 0.2045
vt 0.6562 0.1562
vt 0.6486 0.8920
vt 0.6264 0.9356
vt 0.5000 0.8375
vt 0.5918 0.9702
vt 0.5483 0.9924
vt 0.5000 1.0000
vt 0.4517 0.9924
vt 0.4082 0.9702
vt 0.3736 0.9356
vt 0.3514 0.8920
vt 0.3438 0.8438
vt 0.3514 0.7955
vt 0.3736 0.7519
vt 0.4082 0.7173
vt 0.4517 0.6951
vt 0.5000 0.6875
vt 0.5483 0.6951
vt 0.5918 0.7173
vt 0.6264 0.7519
vt 0.6486 0.7955
vt 0.6562 0.8438
vn 0.9511 0.0000 -0.3090
vn 0.8090 0.0000 -0.5878
vn 0.5878 0.0000 -0.8090
vn 0.3090 0.0000 -0.9511
vn 0.0000 0.0000 -1.0000
vn -0.3090 0.0000 -0.9511
vn -0.5878 0.0000 -0.8090
vn -0.8090 0.0000 -0.5878
vn -0.9511 0.0000 -0.3090
vn -1.0000 0.0000 -0.0000
vn -0.9511 -0.0000 0.3090
vn -0.8090 -0.0000 0.5878
vn -0.5878 -0.0000 0.8090
vn -0.3090 -0.0000 0.9511
vn 0.0000 -0.0000 1.0000
vn 0.3090 -0.0000 0.9511
vn 0.5878 -0.0000 0.8090
vn 0.8090 -0.0000 0.5878
vn 0.9511 -0.0000 0.3090
vn 1.0000 0.0000 -0.0000
vn 0.0000 -1.0000 -0.0000
vn 0.0000 1.0000 0.0000
usemtl initialShadingGroup
s 1
f 43/85/23 44/86/24 45/87/24 46/88/23
f 44/86/24 47/89/25 48/90/25 45/87/24
f 47/89/25 49/91/26 50/92/26 48/90/25
f 49/91/26 51/93/27 52/94/27 50/92/26
f 51/93/27 53/95/28 54/96/28 52/94/27
f 53/95/28 55/97/29 56/98/29 54/96/28
f 55/97/29 57/99/30 58/100/30 56/98/29
f 57/99/30 59/101/31 60/102/31 58/100/30
f 59/101/31 61/103/32 62/104/32 60/102/31
f 61/103/32 63/105/33 64/106/33 62/104/32
f 63/105/33 65/107/34 66/108/34 64/106/33
f 65/107/34 67/109/35 68/110/35 66/108/34
f 67/109/35 69/111/36 70/112/36 68/110/35
f 69/111/36 71/113/37 72/114/37 70/112/36
f 71/113/37 73/115/38 74/116/38 72/114/37
f 73/115/38 75/117/39 76/118/39 74/116/38
f 75/117/39 77/119/40 78/120/40 76/118/39
f 77/119/40 79/121/41 80/122/41 78/120/40
f 79/121/41 81/123/42 82/124/42 80/122/41
f 81/123/42 43/125/23 46/126/23 82/124/42
f 44/127/43 43/128/43 83/129/43
f 47/130/43 44/127/43 83/129/43
f 49/131/43 47/130/43 83/129/43
f 51/132/43 49/131/43 83/129/43
f 53/133/43 51/132/43 83/129/43
f 55/134/43 53/133/43 83/129/43
f 57/135/43 55/134/43 83/129/43
f 59/136/43 57/135/43 83/129/43
f 61/137/43 59/136/43 83/129/43
f 63/138/43 61/137/43 83/129/43
f 65/139/43 63/138/43 83/129/43
f 67/140/43 65/139/43 83/129/43
f 69/141/43 67/140/43 83/129/43
f 71/142/43 69/141/43 83/129/43
f 73/143/43 71/142/43 83/129/43
f 75/144/43 73/143/43 83/129/43
f 77/145/43 75/144/43 83/129/43
f 79/146/43 77/145/43 83/129/43
f 81/147/43 79/146/43 83/129/43
f 43/128/43 81/147/43 83/129/43
f 46/148/44 45/149/44 84/150/44
f 45/149/44 48/151/44 84/150/44
f 48/151/44 50/152/44 84/150/44
f 50/152/44 52/153/44 84/150/44
f 52/153/44 54/154/44 84/150/44
f 54/154/44 56/155/44 84/150/44
f 56/155/44 58/156/44 84/150/44
f 58/156/44 60/157/44 84/150/44
f 60/157/44 62/158/44 84/150/44
f 62/158/44 64/159/44 84/150/44
f 64/159/44 66/160/44 84/150/44
f 66/160/44 68/161/44 84/150/44
f 68/161/44 70/162/44 84/150/44
f 70/162/44 72/163/44 84/150/44
f 72/163/44 74/164/44 84/150/44
f 74/164/44 76/165/44 84/150/44
f 76/165/44 78/166/44 84/150/44
f 78/166/44 80/167/44 84/150/44
f 80/167/44 82/168/44 84/150/44
f 82/168/44 46/148/44 84/150/44
o Cube_Cube.001
v 0.822973 0.038807 -1.150899
v 0.822973 0.038807 -1.138239
v 0.682973 0.038807 -1.133958
v 0.682973 0.040283 -1.153958
v 0.822973 0.018807 -1.153958
v 0.822973 0.018807 -1.133958
v 0.682973 0.018807 -1.135542
v 0.682973 0.018807 -1.153958
v 0.833116 0.037820 -1.149095
v 0.833116 0.034600 -1.135332
v 0.673337 0.040230 -1.136609
v 0.672830 0.040256 -1.151559
v 0.830927 0.017358 -1.151686
v 0.833116 0.017358 -1.136217
v 0.672830 0.018786 -1.135444
v 0.676720 0.017358 -1.154171
v 0.835395 0.037302 -1.143958
v 0.752613 0.040581 -1.152248
v 0.831906 0.028807 -1.149544
v 0.752973 0.040581 -1.136226
v 0.830697 0.028807 -1.134595
v 0.673835 0.036036 -1.143958
v 0.670551 0.028807 -1.134304
v 0.670551 0.028807 -1.152981
v 0.835395 0.017032 -1.143958
v 0.752973 0.017032 -1.146994
v 0.752973 0.017032 -1.136726
v 0.670551 0.019592 -1.143958
v 0.752973 0.028807 -1.153029
v 0.665405 0.030142 -1.143958
v 0.752973 0.028807 -1.139055
v 0.838634 0.028807 -1.143958
v 0.752973 0.016297 -1.143958
v 0.752973 0.037597 -1.143958
v 0.835395 0.035208 -1.140115
v 0.717973 0.040581 -1.149713
v 0.831396 0.023807 -1.151091
v 0.717973 0.040581 -1.140010
v 0.829492 0.023807 -1.134665
v 0.673534 0.036133 -1.148958
v 0.670551 0.023807 -1.133998
v 0.670551 0.023807 -1.153020
v 0.835395 0.017032 -1.138958
v 0.717973 0.017032 -1.153873
v 0.717973 0.017032 -1.140005
v 0.670551 0.019440 -1.148958
v 0.835395 0.037342 -1.148958
v 0.787973 0.038379 -1.151968
v 0.831737 0.033807 -1.149030
v 0.787973 0.035783 -1.137086
v 0.831429 0.033807 -1.135163
v 0.674346 0.035529 -1.138958
v 0.671848 0.033807 -1.136125
v 0.670551 0.033807 -1.152004
v 0.835395 0.017032 -1.148958
v 0.787973 0.017032 -1.149976
v 0.787973 0.017032 -1.135445
v 0.670551 0.019294 -1.138958
v 0.717973 0.028807 -1.155128
v 0.787973 0.028807 -1.150587
v 0.752973 0.023807 -1.151549
v 0.752973 0.033807 -1.151245
v 0.665405 0.029986 -1.147802
v 0.665405 0.028807 -1.138958
v 0.665405 0.032632 -1.143958
v 0.665405 0.023807 -1.143958
v 0.717973 0.028807 -1.133325
v 0.787973 0.028807 -1.139765
v 0.752973 0.033807 -1.137450
v 0.752973 0.023807 -1.138473
v 0.837884 0.028807 -1.138958
v 0.837898 0.028807 -1.148958
v 0.838243 0.033807 -1.143958
v 0.837889 0.023807 -1.143958
v 0.752973 0.016297 -1.138958
v 0.752973 0.016297 -1.148958
v 0.787973 0.016297 -1.143958
v 0.717973 0.016297 -1.143958
v 0.717973 0.037610 -1.143958
v 0.787973 0.037375 -1.143958
v 0.752973 0.037274 -1.148958
v 0.752973 0.041316 -1.138958
v 0.787973 0.041316 -1.138958
v 0.787973 0.037691 -1.148958
v 0.717973 0.037239 -1.148958
v 0.717973 0.016297 -1.148958
v 0.787973 0.016297 -1.148958
v 0.787973 0.016297 -1.138958
v 0.837001 0.023807 -1.148958
v 0.837452 0.033807 -1.148958
v 0.837088 0.033807 -1.138958
v 0.787973 0.023807 -1.139332
v 0.787973 0.033807 -1.138942
v 0.717973 0.033807 -1.132989
v 0.665405 0.023807 -1.139722
v 0.665405 0.033807 -1.140103
v 0.665405 0.033807 -1.147954
v 0.787973 0.033807 -1.150331
v 0.787973 0.023807 -1.149387
v 0.717973 0.023807 -1.150804
v 0.717973 0.033807 -1.152464
v 0.665405 0.023807 -1.147749
v 0.717973 0.023807 -1.132662
v 0.836921 0.023807 -1.138958
v 0.717973 0.016297 -1.138958
v 0.717973 0.037573 -1.138958
vt 0.9939 0.9926
vt 0.0820 0.9910
vt 0.0032 1.0015
vt 0.0001 0.2856
vt 0.8418 0.1282
vt -0.0407 0.0277
vt 0.0000 0.0000
vt 0.0000 0.0000
vt 0.0000 0.0000
vt 0.0000 0.0000
vt 0.0000 0.0000
vt 0.0000 0.0000
vt 0.0000 0.0000
vt 0.0000 0.0000
vt 0.0000 0.0000
vt 0.0000 0.0000
vt 0.0000 0.0000
vt 0.0000 0.0000
vt 0.0000 0.0000
vt 0.0000 0.0000
vt 0.0000 0.0000
vt 0.0000 0.0000
vt 0.0000 0.0000
vt 0.0000 0.0000
vt 0.0000 0.0000
vt 0.0000 0.0000
vt 0.0000 0.0000
vt 0.0000 0.0000
vt 0.0000 0.0000
vt 0.0000 0.0000
vt 0.0000 0.0000
vt 0.0000 0.0000
vt 0.0000 0.0000
vt 0.0000 0.0000
vt 0.0000 0.0000
vt 0.0000 0.0000
vt 0.0000 0.0000
vt 0.0000 0.0000
vt 0.0000 0.0000
vt 0.0000 0.0000
vt 0.0000 0.0000
vt 0.0000 0.0000
vt 0.0000 0.0000
vt 0.0000 0.0000
vt 0.0000 0.0000
vt 0.0000 0.0000
vt 0.0000 0.0000
vt 0.0000 0.0000
vt 0.0000 0.0000
vt 0.0000 0.0000
vt 0.0000 0.0000
vt 0.0000 0.0000
vt 0.0000 0.0000
vt 0.0000 0.0000
vt 0.0000 0.0000
vt 0.0000 0.0000
vt 0.0000 0.0000
vt 0.0000 0.0000
vt 0.0000 0.0000
vt 0.0000 0.0000
vt 0.0000 0.0000
vt 0.0000 0.0000
vt 0.0000 0.0000
vt 0.0000 0.0000
vt 0.0000 0.0000
vt 0.0000 0.0000
vt 0.0000 0.0000
vt 0.0000 0.0000
vt 0.0000 0.0000
vt 0.0000 0.0000
vt 0.0000 0.0000
vt 0.0000 0.0000
vt 0.0000 0.0000
vt 0.0000 0.0000
vt 0.0000 0.0000
vt 0.0000 0.0000
vt 0.0000 0.0000
vt 0.0000 0.0000
vt 0.0000 0.0000
vt 0.0000 0.0000
vt 0.0000 0.0000
vt 0.0000 0.0000
vt 0.0000 0.0000
vt 0.0000 0.0000
vt 0.0000 0.0000
vt 0.0000 0.0000
vt 0.0000 0.0000
vt 0.0000 0.0000
vt 0.0000 0.0000
vt 0.0000 0.0000
vt 0.0000 0.0000
vt 0.0000 0.0000
vt 0.0000 0.0000
vt 0.0000 0.0000
vt 0.0000 0.0000
vt 0.0000 0.0000
vt 0.0000 0.0000
vt 0.0000 0.0000
vt 0.0000 0.0000
vt 0.0000 0.0000
vt 0.0000 0.0000
vt 0.0000 0.0000
vt 0.0000 0.0000
vt 0.0000 0.0000
vt 0.0000 0.0000
vt 0.0000 0.0000
vt 0.0000 0.0000
vt 0.0000 0.0000
vt 0.0000 0.0000
vt 0.0000 0.0000
vt 0.0000 0.0000
vt 0.0000 0.0000
vn -0.5354 -0.0513 -0.8431
vn -0.6622 -0.3890 -0.6404
vn 0.0055 0.9990 0.0452
vn 0.0000 -1.0000 0.0000
vn 1.0000 0.0000 0.0000
vn 0.0096 0.0673 0.9977
vn -1.0000 0.0000 -0.0000
vn 0.0113 0.0735 -0.9972
vn 0.0424 -0.1603 0.9862
vn 0.0443 0.9902 -0.1323
vn -0.5866 0.0021 -0.8099
vn -0.0167 0.5954 -0.8033
vn 0.6265 0.5309 0.5707
vn -0.0137 -0.2327 0.9725
vn -0.0007 0.3938 0.9192
vn -0.0634 0.2583 0.9640
vn -0.0095 0.2263 0.9740
vn 0.6615 -0.0698 0.7467
vn 0.6455 0.7634 0.0246
vn 0.0434 -0.1523 -0.9874
vn -0.0305 0.2359 -0.9713
vn 0.0056 -0.3839 -0.9234
vn -0.9852 -0.0824 0.1505
vn -0.9537 0.2886 0.0847
vn 0.0045 0.9688 -0.2480
vn 0.0000 1.0000 0.0000
vn 0.0677 0.9976 -0.0152
vn 0.0302 -0.9992 0.0264
vn 0.0028 -1.0000 0.0007
vn -0.0504 -0.5911 -0.8050
vn -0.0025 -0.7938 0.6081
vn -0.0612 -0.9770 0.2041
vn -0.0527 -0.7248 -0.6870
vn -0.0193 -0.8449 -0.5346
vn 0.0016 -0.9373 -0.3484
vn -0.0045 -0.9994 -0.0356
vn 0.0253 -0.4080 -0.9126
vn -0.0308 -0.5208 -0.8531
vn 0.0003 -0.9976 0.0692
vn -0.0438 0.8943 0.4454
vn 0.0392 0.9934 -0.1082
vn -0.0155 0.9999 0.0000
vn -0.0060 0.9603 0.2790
vn 0.0358 -0.5403 0.8407
vn -0.0127 0.9851 -0.1717
vn -0.9743 0.1600 0.1584
vn -0.2267 -0.1177 0.9668
vn -0.4338 0.0275 0.9006
vn -0.8185 -0.5711 0.0625
vn -0.0258 0.0062 0.9996
vn -0.0561 -0.0546 0.9969
vn -0.6791 -0.6895 -0.2520
vn -0.9757 -0.1158 -0.1859
vn -0.0223 -0.1011 -0.9946
vn 0.1158 -0.0500 -0.9920
vn 0.0449 -0.1617 -0.9858
vn -0.0089 0.3319 -0.9433
vn 0.0608 0.4919 -0.8685
vn 0.1033 0.0178 -0.9945
vn -0.0006 -0.4942 -0.8693
vn -0.0089 -0.3933 -0.9193
vn -0.1415 0.1887 -0.9718
vn 0.7097 0.0323 -0.7038
vn 0.6639 0.5531 -0.5033
vn 0.2792 -0.9586 0.0562
vn 0.6120 -0.7886 0.0603
vn 0.5697 -0.3008 -0.7648
vn 0.6425 -0.7649 -0.0450
vn 0.3159 -0.9379 -0.1431
vn -0.0469 -0.1997 0.9787
vn -0.0266 -0.0771 0.9967
vn -0.0447 0.2011 0.9785
vn 0.0112 0.2809 0.9597
vn 0.0397 -0.0905 0.9951
vn 0.0076 -0.0352 0.9994
vn -0.0281 -0.3157 0.9484
vn -0.0868 0.1086 0.9903
vn -0.0167 0.5019 0.8647
vn 0.0258 -0.3420 0.9394
vn -0.0433 -0.4060 0.9128
vn 0.0187 -0.1275 0.9917
vn 0.7125 0.0008 0.7016
vn 0.6394 0.7687 -0.0133
vn 0.0243 -0.0965 -0.9950
vn -0.1615 -0.1221 -0.9793
vn -0.0334 0.3816 -0.9237
vn -0.5061 0.1157 -0.8547
vn -0.9719 0.1659 -0.1670
vn -0.9546 0.2833 -0.0924
vn 0.0365 0.6269 -0.7782
vn 0.0662 0.9974 0.0297
vn 0.0411 -0.9976 -0.0563
vn 0.0499 -0.9372 0.3452
vn -0.0117 -0.5941 0.8043
usemtl Material.002
s off
f 175/169/45 155/170/45 105/171/45 135/172/45
f 119/173/46 175/169/46 135/172/46 94/174/46
usemtl Material.002_Joint_1.3.png
f 85/175/47 88/176/47 87/177/47 86/178/47
f 89/179/48 90/180/48 91/181/48 92/182/48
f 85/175/49 86/178/49 90/180/49 89/179/49
f 86/178/50 87/177/50 91/181/50 90/180/50
f 87/177/51 88/176/51 92/182/51 91/181/51
f 89/179/52 92/182/52 88/176/52 85/175/52
f 190/183/53 122/184/53 95/185/53 136/186/53
f 189/187/54 142/188/54 99/189/54 129/190/54
f 188/191/55 127/192/55 98/193/55 123/194/55
f 187/195/56 129/190/56 99/189/56 125/196/56
f 186/197/57 130/198/57 100/199/57 126/200/57
f 185/201/58 120/202/58 96/203/58 138/204/58
f 184/205/59 143/206/59 108/207/59 126/200/59
f 183/208/60 144/209/60 113/210/60 145/211/60
f 182/212/61 132/213/61 102/214/61 146/215/61
f 181/216/62 147/217/62 108/207/62 138/204/62
f 180/218/49 148/219/49 114/220/49 149/221/49
f 179/222/63 142/188/63 112/223/63 150/224/63
f 178/225/64 151/226/64 107/227/64 137/228/64
f 177/229/65 152/230/65 115/231/65 153/232/65
f 176/233/66 141/234/66 111/235/66 154/236/66
f 174/237/67 156/238/67 116/239/67 157/240/67
f 173/241/68 139/242/68 109/243/68 158/244/68
f 172/245/69 159/246/69 111/235/69 141/234/69
f 171/247/70 160/248/70 117/249/70 161/250/70
f 170/251/71 130/198/71 112/223/71 162/252/71
f 169/253/72 163/254/72 106/255/72 124/256/72
f 168/257/73 164/258/73 118/259/73 165/260/73
f 167/261/74 134/262/74 104/263/74 166/264/74
f 164/258/75 167/261/75 166/264/75 118/259/75
f 101/265/76 119/266/76 167/261/76 164/258/76
f 119/266/77 94/267/77 134/262/77 167/261/77
f 132/213/78 168/257/78 165/260/78 102/214/78
f 93/268/79 131/269/79 168/257/79 132/213/79
f 131/269/80 101/265/80 164/258/80 168/257/80
f 120/202/81 169/253/81 124/256/81 96/203/81
f 102/214/82 165/260/82 169/253/82 120/202/82
f 165/260/83 118/259/83 163/254/83 169/253/83
f 160/248/70 170/251/70 162/252/70 117/249/70
f 110/270/84 128/271/84 170/251/84 160/248/84
f 128/271/85 100/199/85 130/198/85 170/251/85
f 139/242/86 171/247/86 161/250/86 109/243/86
f 97/272/87 140/273/87 171/247/87 139/242/87
f 140/273/88 110/270/88 160/248/88 171/247/88
f 127/192/89 172/245/89 141/234/89 98/193/89
f 109/243/86 161/250/86 172/245/86 127/192/86
f 161/250/70 117/249/70 159/246/70 172/245/70
f 156/238/90 173/241/90 158/244/90 116/239/90
f 103/274/91 121/275/91 173/241/91 156/238/91
f 121/275/92 97/272/92 139/242/92 173/241/92
f 131/269/93 174/237/93 157/240/93 101/265/93
f 93/268/94 133/276/94 174/237/94 131/269/94
f 133/276/95 103/274/95 156/238/95 174/237/95
f 101/265/96 157/240/96 175/277/96 119/266/96
f 157/240/97 116/239/97 155/278/97 175/277/97
f 152/230/98 176/233/98 154/236/98 115/231/98
f 105/279/99 123/194/99 176/233/99 152/230/99
f 123/194/100 98/193/100 141/234/100 176/233/100
f 134/262/101 177/229/101 153/232/101 104/263/101
f 94/267/102 135/280/102 177/229/102 134/262/102
f 135/280/103 105/279/103 152/230/103 177/229/103
f 122/184/104 178/225/104 137/228/104 95/185/104
f 104/263/105 153/232/105 178/225/105 122/184/105
f 153/232/106 115/231/106 151/226/106 178/225/106
f 148/219/49 179/222/49 150/224/49 114/220/49
f 107/227/107 125/196/107 179/222/107 148/219/107
f 125/196/108 99/189/108 142/188/108 179/222/108
f 136/186/109 180/218/109 149/221/109 106/255/109
f 95/185/110 137/228/110 180/218/110 136/186/110
f 137/228/111 107/227/111 148/219/111 180/218/111
f 124/256/112 181/216/112 138/204/112 96/203/112
f 106/255/113 149/221/113 181/216/113 124/256/113
f 149/221/49 114/220/49 147/217/49 181/216/49
f 144/209/114 182/212/114 146/215/114 113/210/114
f 103/274/115 133/276/115 182/212/115 144/209/115
f 133/276/116 93/268/116 132/213/116 182/212/116
f 140/273/117 183/208/117 145/211/117 110/270/117
f 97/272/118 121/275/118 183/208/118 140/273/118
f 121/275/119 103/274/119 144/209/119 183/208/119
f 128/271/120 184/205/120 126/200/120 100/199/120
f 110/270/121 145/211/121 184/205/121 128/271/121
f 145/211/122 113/210/122 143/206/122 184/205/122
f 143/206/123 185/201/123 138/204/123 108/207/123
f 113/210/124 146/215/124 185/201/124 143/206/124
f 146/215/125 102/214/125 120/202/125 185/201/125
f 147/217/126 186/197/126 126/200/126 108/207/126
f 114/220/49 150/224/49 186/197/49 147/217/49
f 150/224/127 112/223/127 130/198/127 186/197/127
f 151/226/128 187/195/128 125/196/128 107/227/128
f 115/231/129 154/236/129 187/195/129 151/226/129
f 154/236/130 111/235/130 129/190/130 187/195/130
f 155/278/131 188/191/131 123/194/131 105/279/131
f 116/239/132 158/244/132 188/191/132 155/278/132
f 158/244/133 109/243/133 127/192/133 188/191/133
f 159/246/134 189/187/134 129/190/134 111/235/134
f 117/249/70 162/252/70 189/187/70 159/246/70
f 162/252/135 112/223/135 142/188/135 189/187/135
f 163/254/136 190/183/136 136/186/136 106/255/136
f 118/259/137 166/264/137 190/183/137 163/254/137
f 166/264/138 104/263/138 122/184/138 190/183/138
